<?xml version="1.0" standalone="no"?>
<!DOCTYPE svg PUBLIC "-//W3C//DTD SVG 20010904//EN"
 "http://www.w3.org/TR/2001/REC-SVG-20010904/DTD/svg10.dtd">
<svg version="1.0" xmlns="http://www.w3.org/2000/svg"
 width="800.000000pt" height="533.000000pt" viewBox="0 0 800.000000 533.000000"
 preserveAspectRatio="xMidYMid meet">

<g transform="translate(0.000000,533.000000) scale(0.100000,-0.100000)"
fill="#000000" stroke="none">
<path d="M6205 5011 c-3 -10 -3 -31 0 -44 6 -22 3 -26 -21 -29 -27 -3 -29 -5
-28 -53 1 -38 5 -51 18 -53 25 -5 36 -44 36 -122 0 -54 -4 -73 -19 -87 -24
-24 -48 -167 -31 -188 10 -12 9 -16 -5 -21 -30 -12 -48 20 -48 83 1 32 -1 49
-3 38 -18 -84 -29 -107 -53 -120 -14 -8 -21 -14 -14 -15 6 0 9 -9 6 -20 -3
-11 1 -28 8 -37 12 -15 10 -15 -16 1 -74 48 -135 89 -135 93 0 4 115 160 132
178 6 6 7 -16 2 -55 -3 -36 -4 -63 -1 -60 4 4 9 35 11 70 3 36 9 76 12 90 5
19 4 22 -5 14 -29 -27 -211 -281 -211 -295 0 -20 25 -42 138 -120 155 -107
145 -102 174 -80 13 11 53 64 88 118 116 179 163 247 229 333 105 135 141 189
141 213 0 19 -24 34 -147 95 l-146 73 -28 -20 -28 -21 -3 28 c-4 34 -43 44
-53 13z"/>
<path d="M3287 4880 c-81 -25 -140 -108 -140 -200 0 -83 44 -151 123 -188 52
-25 144 -15 199 21 47 31 91 109 91 162 0 143 -136 246 -273 205z m83 -84 c6
-8 26 -16 43 -18 31 -3 32 -4 35 -60 4 -69 -14 -108 -62 -138 -41 -25 -57 -20
-105 35 -30 34 -32 41 -29 98 l3 62 40 6 c21 4 41 12 43 18 5 15 17 14 32 -3z"/>
<path d="M3350 4724 c0 -32 2 -34 35 -34 30 0 35 3 35 23 0 18 -8 26 -35 34
l-35 11 0 -34z"/>
<path d="M3313 4672 c-28 -4 -29 -16 -3 -42 28 -28 40 -25 40 9 0 34 -6 39
-37 33z"/>
<path d="M785 4715 c-32 -31 -33 -74 -2 -103 72 -67 172 34 102 103 -13 14
-36 25 -50 25 -14 0 -37 -11 -50 -25z"/>
<path d="M6939 4275 c-109 -35 -191 -152 -191 -270 0 -159 122 -280 282 -278
109 1 193 51 246 145 25 46 29 63 29 133 0 67 -5 88 -27 131 -63 120 -211 180
-339 139z m156 -120 c18 -18 25 -35 25 -65 0 -33 3 -40 20 -40 18 0 20 -7 20
-70 0 -62 -3 -74 -25 -95 -21 -22 -33 -25 -100 -25 -67 0 -79 3 -100 25 -22
21 -25 33 -25 95 0 63 2 70 20 70 17 0 20 7 20 39 0 56 31 91 81 91 29 0 47
-7 64 -25z"/>
<path d="M7008 4139 c-12 -7 -18 -22 -18 -49 l0 -40 45 0 c44 0 45 0 45 33 0
20 -8 41 -18 50 -21 19 -30 20 -54 6z"/>
<path d="M7016 3991 c-10 -15 6 -71 19 -71 13 0 29 56 19 71 -3 5 -11 9 -19 9
-8 0 -16 -4 -19 -9z"/>
<path d="M2598 4144 l-55 -56 -38 37 -37 38 -21 -22 -22 -21 58 -57 57 -58 66
65 c82 81 89 93 66 113 -17 15 -22 12 -74 -39z"/>
<path d="M3740 3740 c0 -137 18 -148 22 -12 l3 97 155 0 155 0 3 -97 c4 -136
22 -125 22 12 l0 110 -180 0 -180 0 0 -110z"/>
<path d="M5170 3805 c0 -12 13 -15 60 -15 47 0 60 3 60 15 0 12 -13 15 -60 15
-47 0 -60 -3 -60 -15z"/>
<path d="M5170 3705 c0 -36 -3 -45 -17 -45 -13 0 -4 -14 30 -47 l47 -48 47 48
c34 33 43 47 30 47 -14 0 -17 9 -17 45 l0 45 -60 0 -60 0 0 -45z"/>
<path d="M1522 3648 c-10 -13 -122 -490 -122 -520 0 -8 10 -20 23 -25 34 -16
69 -140 65 -228 -2 -36 -7 -65 -12 -65 -19 0 7 -15 47 -27 23 -7 42 -11 43
-10 0 1 8 24 18 51 15 45 15 51 0 67 -42 46 -55 142 -28 209 l17 41 32 -31
c30 -29 32 -35 23 -61 -13 -37 5 -84 39 -106 20 -14 28 -14 49 -2 21 11 24 18
18 39 -10 36 -6 72 10 88 23 23 97 26 122 5 21 -17 21 -22 12 -88 -9 -67 -9
-71 13 -85 74 -49 104 -118 101 -230 -2 -70 -4 -77 -33 -102 -26 -22 -31 -32
-27 -58 3 -17 1 -33 -4 -36 -14 -9 -9 -71 7 -78 17 -6 9 -36 -9 -36 -7 0 -13
-15 -13 -32 -1 -18 -6 -80 -12 -138 -10 -110 -6 -125 32 -116 9 2 17 0 17 -5
0 -10 44 -30 73 -32 9 -1 17 -4 17 -7 0 -8 62 -30 83 -30 30 0 18 18 -20 31
-21 7 -42 12 -47 10 -5 -1 -4 5 3 13 10 12 9 16 -6 25 -31 18 -5 12 62 -15 70
-28 122 -27 111 2 -3 8 -1 12 4 9 5 -3 19 -1 32 6 21 11 21 12 3 25 -18 13
-17 14 10 9 17 -3 37 -1 45 5 13 9 13 11 0 20 -11 8 -9 9 11 5 16 -4 31 -1 40
7 8 8 23 18 34 22 18 8 18 9 -10 22 -36 16 -62 17 -70 4 -3 -6 -11 -10 -17
-10 -7 0 -6 5 2 15 10 12 8 16 -15 25 -14 5 -34 10 -44 10 -9 0 -21 4 -27 9
-5 4 -24 13 -41 19 -38 12 -58 -3 -22 -17 l23 -8 -23 -13 c-16 -8 -21 -8 -16
-1 4 7 2 17 -3 24 -5 7 -13 27 -17 45 -5 24 -3 32 7 32 8 0 93 -26 190 -59
110 -37 185 -57 202 -54 15 3 60 -7 106 -23 63 -21 83 -25 92 -16 7 7 47 142
90 300 42 158 93 348 113 422 69 256 115 435 115 446 0 22 -74 44 -262 79
-106 20 -422 81 -703 136 -280 55 -517 100 -526 99 -9 0 -21 -6 -27 -12z m682
-180 c347 -72 633 -135 634 -140 2 -4 8 -6 12 -3 16 10 89 -7 94 -22 3 -8 2
-12 -3 -8 -5 3 -11 2 -14 -2 -2 -5 -3 -3 -2 2 2 7 -57 8 -169 5 -94 -3 -193
-2 -221 1 -27 3 -69 4 -93 1 -37 -4 -44 -9 -48 -31 -9 -44 -49 -81 -86 -81
-30 0 -58 40 -58 80 0 40 -18 52 -31 21 -4 -11 -21 -14 -65 -12 -32 1 -60 7
-62 12 -5 14 -36 11 -58 -6 -25 -19 -65 -19 -90 0 -15 11 -59 14 -221 15 -124
0 -204 -4 -208 -10 -10 -17 -33 -11 -29 8 2 9 15 73 29 142 33 156 34 160 47
160 6 0 295 -59 642 -132z m483 -356 c9 -6 -3 -63 -47 -222 -60 -215 -94 -327
-85 -280 4 24 3 24 -10 6 -21 -27 -19 -10 9 109 13 55 38 161 55 235 18 74 34
141 36 148 5 14 24 16 42 4z m-577 -61 c0 -11 -29 -35 -35 -29 -3 2 -6 13 -8
24 -1 10 -6 25 -10 32 -5 6 -5 17 -1 24 5 8 15 2 31 -16 12 -15 23 -31 23 -35z
m211 39 c24 -14 23 -62 -3 -106 -18 -31 -18 -31 7 -58 21 -23 23 -30 13 -57
l-11 -31 -69 4 c-85 7 -103 21 -94 72 6 29 12 37 39 44 30 8 32 12 38 60 10
76 33 97 80 72z m-617 -38 c7 -11 -6 -26 -24 -30 -11 -2 -10 1 3 12 14 10 15
15 5 19 -9 4 -9 6 -1 6 6 1 14 -3 17 -7z m882 -75 c2 -7 -29 -140 -71 -295
-41 -154 -75 -283 -75 -286 0 -2 -9 -2 -21 1 -16 5 -19 11 -14 31 3 14 36 147
72 294 57 236 67 268 84 268 11 0 22 -6 25 -13z m-151 -287 c5 -8 -17 -107
-51 -226 -12 -44 -18 -51 -34 -47 -11 3 -20 6 -20 8 0 5 61 251 65 263 5 14
31 16 40 2z m-192 -91 c20 -5 37 -14 37 -19 0 -5 -21 -2 -47 6 -27 8 -65 19
-85 24 -21 6 -38 15 -38 19 0 5 21 3 48 -5 26 -8 64 -19 85 -25z m-40 -45 c37
-10 67 -23 67 -27 0 -5 -6 -7 -13 -4 -7 3 -41 13 -75 22 -35 10 -65 22 -69 28
-4 6 0 8 8 5 8 -2 44 -13 82 -24z m-11 -25 c39 -11 67 -23 64 -26 -7 -7 -126
26 -140 39 -15 12 1 10 76 -13z m-6 -25 c27 -9 55 -18 63 -20 8 -2 11 -7 8
-10 -6 -6 -117 26 -131 38 -15 12 5 10 60 -8z m70 -284 c35 -17 37 -19 13 -20
-36 0 -44 -12 -18 -26 l22 -12 -22 -7 c-14 -4 -20 -12 -17 -22 5 -11 1 -13
-17 -7 -31 9 -59 27 -31 19 11 -3 28 1 39 9 17 12 16 14 -21 25 -21 7 -45 15
-53 17 -8 2 -12 7 -9 10 3 2 18 0 33 -6 28 -11 65 -5 65 9 0 4 -10 13 -22 19
-13 6 -18 11 -12 11 6 1 28 -8 50 -19z m-216 -23 c0 -15 -47 -44 -56 -35 -3 4
4 9 16 13 13 4 19 12 16 21 -3 8 1 14 9 14 8 0 15 -6 15 -13z m-44 -83 c-4
-25 -29 -34 -56 -19 l-25 13 35 10 c48 14 49 14 46 -4z"/>
<path d="M1506 3313 c-6 -14 -5 -15 5 -6 7 7 10 15 7 18 -3 3 -9 -2 -12 -12z"/>
<path d="M3702 3580 c12 -19 24 -20 213 -20 195 0 225 4 225 32 0 4 -40 8 -90
8 -53 0 -90 -4 -90 -10 0 -5 -18 -10 -39 -10 -22 0 -43 5 -46 10 -3 6 -46 10
-96 10 -87 0 -89 -1 -77 -20z"/>
<path d="M5050 3568 c1 -56 34 -68 182 -68 143 0 169 10 167 63 -1 21 -3 25
-6 12 -12 -50 -28 -55 -168 -55 -139 0 -155 5 -155 47 0 13 -4 23 -10 23 -5 0
-10 -10 -10 -22z"/>
<path d="M5850 3473 c-122 -14 -216 -59 -287 -136 -120 -130 -152 -298 -91
-466 31 -86 125 -188 212 -231 225 -111 491 -18 600 210 29 62 31 71 31 185
-1 136 -13 176 -87 273 -81 108 -247 180 -378 165z m140 -229 c49 -20 80 -67
80 -122 0 -32 4 -42 20 -47 52 -17 80 -113 45 -161 -27 -40 -61 -45 -268 -42
-185 3 -198 4 -218 24 -13 14 -23 39 -26 68 -5 43 -3 48 31 80 22 22 36 44 36
59 0 53 73 103 116 79 13 -8 23 -3 43 21 22 26 70 55 93 57 4 0 26 -7 48 -16z"/>
<path d="M598 2806 c-104 -37 -174 -105 -210 -204 -19 -53 -23 -130 -8 -183
l10 -37 99 30 c90 28 97 32 93 53 -2 13 -13 26 -24 28 -16 5 -18 9 -9 26 9 16
8 22 -6 30 -17 10 -17 12 -1 24 11 9 15 21 11 35 -4 17 -1 22 15 22 12 0 22 8
25 21 4 16 10 19 28 14 14 -5 25 -2 30 6 8 12 12 11 22 -3 9 -11 21 -15 35
-11 17 4 22 1 22 -15 0 -11 8 -22 20 -25 13 -3 18 -10 14 -21 -3 -9 0 -23 7
-32 11 -14 10 -18 -6 -30 -14 -10 -16 -17 -8 -25 8 -8 28 -6 75 8 l63 19 3
104 2 105 -34 23 c-72 49 -191 66 -268 38z"/>
<path d="M1457 2769 c-6 -10 -18 -19 -26 -19 -11 0 -12 -11 -7 -50 5 -34 3
-50 -4 -50 -7 0 -10 -15 -8 -36 l3 -36 109 -39 c60 -21 113 -36 118 -33 21 13
4 58 -43 117 -43 55 -57 65 -100 76 -27 7 -51 17 -55 22 -8 13 7 11 56 -6 57
-20 60 -19 60 14 0 26 -6 31 -45 45 -43 14 -46 14 -58 -5z"/>
<path d="M6470 2680 c-11 -11 -20 -26 -20 -34 0 -8 -10 -23 -23 -33 -28 -23
-84 -128 -89 -167 -2 -24 3 -32 27 -46 28 -16 30 -20 27 -66 -2 -27 -7 -76
-13 -109 -13 -85 -12 -112 3 -97 16 16 58 15 58 -1 0 -8 -33 -23 -82 -37 -46
-13 -107 -32 -135 -42 -52 -19 -53 -20 -54 -61 0 -23 -2 -60 -4 -82 -15 -177
-16 -218 -3 -227 9 -5 10 -10 2 -15 -16 -12 -25 -55 -13 -69 7 -8 7 -14 -1
-19 -5 -3 -10 -10 -10 -15 0 -6 22 -1 48 9 47 19 49 19 72 1 28 -21 31 -19
-37 -50 -29 -13 -53 -27 -53 -31 0 -9 28 1 165 55 100 40 117 43 135 21 10
-12 5 -18 -31 -34 -24 -10 -71 -31 -104 -46 -33 -15 -80 -36 -104 -46 -24 -11
-42 -22 -39 -24 2 -3 49 13 104 35 54 22 104 40 110 40 6 0 18 -8 28 -18 15
-18 11 -21 -99 -72 -64 -30 -119 -58 -122 -63 -3 -6 -2 -7 4 -4 5 4 23 -7 38
-23 17 -18 39 -30 54 -30 23 -1 24 -2 8 -11 -10 -6 -25 -8 -33 -5 -8 3 -13 2
-10 -3 5 -7 -256 -136 -274 -136 -4 0 -112 113 -240 250 -128 138 -252 271
-277 296 l-43 45 157 49 c209 64 191 59 174 47 -11 -8 -9 -13 12 -27 35 -22
85 -12 92 18 17 82 26 139 23 143 -8 8 -543 -157 -560 -173 -10 -9 -18 -26
-18 -39 0 -28 594 -763 618 -765 9 -1 24 -1 32 1 14 1 939 421 1360 617 47 22
118 54 158 73 70 32 92 56 80 89 -5 15 -700 481 -716 481 -9 0 -12 -6 -8 -15
3 -8 0 -26 -6 -40 -8 -18 -8 -47 1 -112 16 -129 28 -165 51 -158 11 4 29 -3
46 -18 23 -20 28 -32 27 -66 -3 -67 -77 -132 -196 -171 -43 -14 -49 -11 -52
24 -2 14 -6 30 -10 35 -3 6 6 16 22 22 74 28 98 96 43 124 -56 29 -63 23 -58
-50 3 -36 2 -63 -2 -60 -12 7 -44 345 -34 355 6 6 7 40 3 82 -14 130 -13 135
21 142 27 5 30 9 30 45 0 36 -33 145 -49 163 -3 4 -21 9 -39 13 -50 8 -72 26
-72 58 0 15 -7 43 -14 62 -18 41 -54 47 -86 15z m18 -121 c7 -12 12 -22 10
-22 -2 -1 -22 -12 -45 -24 -24 -12 -43 -19 -43 -17 0 18 47 84 59 84 3 0 12
-9 19 -21z m82 -629 c0 -11 -4 -20 -10 -20 -5 0 -10 9 -10 20 0 11 5 20 10 20
6 0 10 -9 10 -20z m-123 -30 c1 -17 -1 -30 -5 -30 -4 0 -23 -14 -42 -30 -19
-17 -29 -29 -21 -28 7 2 25 14 40 27 23 20 26 21 29 6 2 -10 -1 -28 -8 -40 -9
-17 -9 -28 0 -45 15 -28 5 -82 -19 -104 -17 -16 -22 -16 -52 -2 -111 49 -132
149 -46 216 27 20 100 59 112 60 6 0 11 -14 12 -30z m138 -9 c3 -5 -4 -13 -16
-16 -23 -8 -34 -1 -24 14 8 13 32 14 40 2z m50 -202 c0 -8 8 -23 18 -33 9 -11
13 -24 9 -28 -13 -13 -168 -22 -175 -10 -11 17 45 46 88 45 38 -1 38 -1 5 4
-71 9 -66 39 7 37 33 -1 48 -6 48 -15z"/>
<path d="M622 2588 c-28 -28 -7 -78 33 -78 12 0 26 5 33 12 28 28 7 78 -33 78
-12 0 -26 -5 -33 -12z"/>
<path d="M995 2580 c-3 -5 -1 -10 4 -10 6 0 11 5 11 10 0 6 -2 10 -4 10 -3 0
-8 -4 -11 -10z"/>
<path d="M3288 2553 c7 -3 16 -2 19 1 4 3 -2 6 -13 5 -11 0 -14 -3 -6 -6z"/>
<path d="M1260 2520 c0 -16 5 -30 10 -30 6 0 10 -4 10 -10 0 -5 -7 -10 -15
-10 -18 0 -20 -26 -2 -33 10 -4 10 -6 0 -6 -19 -1 -16 -21 5 -38 16 -14 16
-14 0 -9 -26 8 -23 -22 4 -45 35 -31 50 -20 28 22 -8 14 -7 19 1 19 7 0 8 7 3
18 -4 9 -6 37 -5 61 1 27 -3 47 -11 52 -10 6 -10 9 -1 9 7 0 10 7 7 15 -11 27
-34 17 -34 -15z"/>
<path d="M3185 2540 c-44 -18 -78 -67 -83 -119 -4 -42 11 -111 24 -111 1 0 25
24 53 53 50 52 51 52 51 120 0 70 -4 75 -45 57z"/>
<path d="M1410 2503 c0 -23 6 -31 28 -39 26 -10 26 -10 4 -16 -12 -3 -20 -2
-16 3 3 5 1 9 -4 9 -5 0 -10 -17 -10 -38 -1 -33 3 -40 26 -50 l27 -11 -27 6
c-23 4 -28 2 -28 -15 0 -11 6 -23 13 -25 10 -4 10 -6 0 -6 -7 -1 -13 -11 -13
-23 0 -20 14 -28 92 -58 51 -19 96 -37 101 -39 5 -2 8 10 5 28 -2 17 -1 31 4
31 4 0 8 10 8 21 0 16 -5 20 -20 16 -11 -3 -17 -1 -14 4 3 5 -5 13 -18 18 -23
10 -23 10 -1 10 12 1 25 -3 28 -9 9 -15 35 -12 35 4 0 8 -8 17 -17 21 -17 7
-17 8 1 14 12 5 20 19 22 39 3 26 0 32 -15 32 -11 0 -23 5 -26 10 -4 7 2 9 19
4 52 -13 24 13 -31 30 -32 10 -71 23 -88 31 -16 7 -42 17 -57 20 -26 7 -28 5
-28 -22z m100 -62 c0 -5 8 -12 18 -14 14 -4 14 -5 1 -6 -9 0 -22 6 -29 14 -9
10 -9 15 -1 15 6 0 11 -4 11 -9z m75 -21 c-3 -5 -1 -10 6 -10 7 0 10 -3 6 -6
-3 -3 -16 -2 -29 2 -22 7 -22 7 -3 15 27 10 27 10 20 -1z m-105 -20 c0 -5 -4
-10 -10 -10 -5 0 -10 5 -10 10 0 6 5 10 10 10 6 0 10 -4 10 -10z m80 -19 c0
-5 -7 -11 -15 -15 -15 -5 -20 5 -8 17 9 10 23 9 23 -2z m-32 -37 c14 -15 14
-16 -3 -13 -10 2 -20 10 -23 17 -5 17 6 15 26 -4z m-23 -52 c-6 -7 -34 11 -29
19 3 5 11 3 19 -4 7 -6 12 -13 10 -15z m75 -20 c12 -13 11 -14 -10 -7 -43 13
-58 24 -30 22 14 -1 32 -8 40 -15z"/>
<path d="M1113 2497 c-30 -15 -41 -76 -17 -94 27 -20 54 -16 54 7 0 13 -7 20
-20 20 -11 0 -20 5 -20 11 0 6 9 8 20 4 17 -5 19 -2 18 29 -1 39 -2 39 -35 23z"/>
<path d="M3281 2474 c0 -11 3 -14 6 -6 3 7 2 16 -1 19 -3 4 -6 -2 -5 -13z"/>
<path d="M993 2463 c-20 -8 -15 -23 7 -23 11 0 20 7 20 15 0 15 -6 17 -27 8z"/>
<path d="M3390 2430 l-25 -8 28 -1 c15 -1 27 4 27 9 0 6 -1 10 -2 9 -2 -1 -14
-5 -28 -9z"/>
<path d="M3298 2423 c12 -2 32 -2 45 0 12 2 2 4 -23 4 -25 0 -35 -2 -22 -4z"/>
<path d="M1769 2405 c-1 -3 -3 -9 -4 -15 -1 -5 -4 -11 -5 -12 -1 -2 -4 -12 -6
-23 -6 -36 -9 -50 -17 -63 -9 -13 7 -34 33 -45 8 -4 3 -5 -12 -2 -33 6 -44 -8
-22 -30 16 -15 16 -16 -2 -13 -14 2 -20 -4 -22 -24 -3 -28 7 -34 46 -29 6 1
12 -2 12 -7 0 -6 7 -13 16 -16 12 -5 15 0 12 22 -1 15 -7 30 -13 34 -6 5 -6 8
2 8 7 0 11 17 11 44 0 37 -3 45 -21 51 l-22 6 23 9 c21 9 31 30 14 30 -4 0 -7
18 -5 40 1 22 -2 40 -8 40 -5 0 -10 -2 -10 -5z"/>
<path d="M3212 2327 c-29 -29 -52 -55 -52 -59 0 -10 79 -38 108 -38 61 0 142
72 142 126 0 23 -3 24 -73 24 l-73 0 -52 -53z"/>
<path d="M6859 2346 c-7 -14 -16 -26 -21 -26 -13 0 -9 -48 5 -60 20 -17 296
-200 302 -200 3 0 5 26 5 58 0 132 -91 233 -224 248 -53 6 -56 5 -67 -20z"/>
<path d="M5012 2343 c2 -9 36 -37 76 -61 l72 -45 73 45 c114 71 108 78 -73 78
-136 0 -151 -2 -148 -17z"/>
<path d="M410 2341 c0 -20 82 -99 131 -125 41 -23 70 -30 128 -34 42 -2 74 -2
71 1 -14 14 -330 166 -330 158z"/>
<path d="M5008 2210 l4 -70 148 0 148 0 4 70 c3 67 2 69 -17 56 -11 -7 -46
-28 -77 -46 l-58 -32 -57 32 c-32 18 -67 39 -78 46 -19 13 -20 11 -17 -56z"/>
<path d="M930 2090 c8 -5 20 -10 25 -10 6 0 3 5 -5 10 -8 5 -19 10 -25 10 -5
0 -3 -5 5 -10z"/>
<path d="M6728 2000 c-3 -33 0 -44 16 -52 18 -10 18 -8 12 33 -10 60 -23 69
-28 19z"/>
<path d="M6720 1910 c0 -5 6 -10 14 -10 8 0 23 -3 33 -6 16 -5 16 -4 -1 10
-22 18 -46 21 -46 6z"/>
<path d="M6005 1818 c-25 -113 -26 -116 -12 -122 8 -3 7 -8 -5 -16 -29 -18
-21 -29 12 -17 l30 11 0 108 c0 59 -2 108 -4 108 -2 0 -11 -33 -21 -72z"/>
<path d="M1820 1655 c0 -13 85 -45 117 -44 l38 1 -41 8 c-22 5 -57 15 -77 24
-21 8 -37 13 -37 11z"/>
<path d="M6000 1594 l-25 -15 25 7 c14 3 29 10 35 15 15 14 -7 10 -35 -7z"/>
<path d="M6090 1460 c-18 -12 -2 -12 25 0 13 6 15 9 5 9 -8 0 -22 -4 -30 -9z"/>
<path d="M4449 1426 c-50 -18 -98 -49 -133 -85 l-30 -31 34 -35 c108 -111 263
-111 370 1 l35 36 -53 49 c-36 33 -70 53 -104 64 -61 18 -72 18 -119 1z m101
-31 c59 -31 68 -98 20 -147 -27 -27 -36 -30 -73 -25 -91 12 -117 129 -38 172
34 18 55 18 91 0z"/>
<path d="M4515 1342 c0 -24 -4 -27 -31 -27 -27 0 -31 -3 -24 -20 4 -11 20 -24
35 -30 23 -8 30 -6 47 14 23 29 20 59 -7 77 -19 13 -21 12 -20 -14z"/>
<path d="M2450 1064 c-19 -8 -43 -23 -53 -32 -60 -54 -75 -165 -33 -236 70
-120 256 -119 324 2 40 71 23 182 -35 234 -50 46 -139 60 -203 32z m169 -164
l2 -70 -90 0 -91 0 0 54 c0 86 0 86 95 86 l82 0 2 -70z"/>
<path d="M2517 909 c7 -7 15 -10 18 -7 3 3 -2 9 -12 12 -14 6 -15 5 -6 -5z"/>
<path d="M5685 1006 c-71 -35 -91 -54 -119 -116 -49 -105 -32 -205 47 -285 62
-61 117 -80 206 -72 134 12 221 109 221 247 0 71 -22 132 -60 165 -12 11 -24
19 -26 18 -14 -10 -38 2 -68 32 -32 32 -40 35 -93 35 -41 0 -73 -7 -108 -24z
m169 -90 c37 -15 72 -59 77 -96 4 -24 2 -25 -63 -28 l-68 -3 0 71 c0 41 4 70
10 70 6 0 26 -6 44 -14z m-74 -59 c0 -62 0 -63 -51 -112 -48 -48 -51 -49 -64
-31 -8 11 -18 34 -21 52 -12 65 53 153 114 154 20 0 22 -4 22 -63z m150 -108
c0 -58 -72 -119 -140 -119 -36 0 -90 25 -90 42 0 7 19 32 42 55 42 43 42 43
115 43 68 0 73 -2 73 -21z"/>
<path d="M5820 860 l0 -40 45 0 c44 0 45 1 34 23 -13 26 -49 56 -66 57 -8 0
-13 -15 -13 -40z"/>
</g>
</svg>
